<svg width="947" height="948" viewBox="0 0 947 948" fill="none" xmlns="http://www.w3.org/2000/svg">
<g clip-path="url(#clip0_2037_3)">
<path d="M947 0.390625H0V947.391H947V0.390625Z" fill="#231F48"/>
<path d="M426.651 273.348L657.942 404.981C659.816 406.056 661.373 407.605 662.459 409.473C663.544 411.34 664.119 413.46 664.126 415.62V451.217C664.119 453.383 663.538 455.509 662.442 457.379C661.346 459.248 659.774 460.793 657.887 461.856L426.651 592.654V521.295L563.632 444.03C565.521 442.962 567.092 441.412 568.185 439.538C569.279 437.664 569.855 435.533 569.855 433.363C569.855 431.193 569.279 429.062 568.185 427.188C567.092 425.314 565.521 423.763 563.632 422.695L426.596 344.707L426.651 273.348Z" fill="#E8ECF7"/>
<path d="M372.728 580.398V285.547C372.743 282.307 374.04 279.204 376.337 276.917C378.634 274.631 381.743 273.348 384.983 273.348H426.651V592.654H384.983C381.738 592.639 378.629 591.343 376.334 589.048C374.039 586.753 372.743 583.644 372.728 580.398Z" fill="#E8ECF7"/>
<path d="M282.875 580.399V285.548C282.882 283.934 283.208 282.337 283.834 280.849C284.46 279.361 285.374 278.012 286.523 276.878C287.672 275.745 289.034 274.849 290.53 274.244C292.026 273.638 293.627 273.333 295.241 273.348H324.654C326.261 273.341 327.853 273.651 329.34 274.261C330.826 274.871 332.178 275.768 333.316 276.902C334.455 278.035 335.359 279.382 335.975 280.866C336.592 282.35 336.909 283.941 336.909 285.548V580.399C336.909 583.649 335.618 586.766 333.32 589.065C331.021 591.363 327.904 592.654 324.654 592.654H295.241C293.625 592.662 292.022 592.35 290.526 591.738C289.029 591.127 287.668 590.226 286.52 589.088C285.371 587.95 284.458 586.597 283.833 585.106C283.207 583.615 282.882 582.016 282.875 580.399Z" fill="#E8ECF7"/>
<path d="M309.112 669.249V674.04H282.875V641.508H308.165V646.187H288.891V655.1H306.772V659.779H288.891V669.305L309.112 669.249Z" fill="#E8ECF7"/>
<path d="M325.434 653.93V674.04H319.863V641.508H326.994L342.424 667.634C342.424 665.071 342.09 662.955 342.09 661.228V641.508H347.661V674.04H340.363L325.1 648.137C325.1 649.251 325.1 650.309 325.1 651.312C325.259 652.178 325.371 653.052 325.434 653.93Z" fill="#E8ECF7"/>
<path d="M375.179 669.642C377.069 669.669 378.951 669.386 380.75 668.807C382.246 668.385 383.634 667.644 384.816 666.634V661.677H376.126V657.331H389.941V669.03C388.088 670.88 385.841 672.289 383.368 673.152C380.641 674.164 377.754 674.674 374.845 674.656C371.753 674.743 368.689 674.054 365.932 672.651C363.572 671.376 361.636 669.44 360.361 667.08C359.008 664.248 358.34 661.138 358.412 658C358.265 655.765 358.57 653.524 359.306 651.409C360.043 649.294 361.198 647.349 362.701 645.689C364.354 644.193 366.29 643.042 368.395 642.305C370.5 641.569 372.731 641.261 374.956 641.4C378.124 641.267 381.272 641.958 384.092 643.405C386.512 644.784 388.367 646.974 389.329 649.588L383.758 651.26C383.099 649.627 381.899 648.27 380.36 647.416C378.646 646.512 376.726 646.07 374.789 646.135C373.353 646.046 371.914 646.274 370.576 646.804C369.238 647.333 368.033 648.151 367.046 649.198C365.119 651.712 364.17 654.839 364.372 658C364.194 661.21 365.184 664.376 367.158 666.913C368.203 667.942 369.467 668.722 370.856 669.195C372.245 669.667 373.723 669.82 375.179 669.642Z" fill="#E8ECF7"/>
<path d="M408.547 641.398V674.042H402.531V641.51L408.547 641.398Z" fill="#E8ECF7"/>
<path d="M426.54 653.93V674.04H420.969V641.508H427.877L443.307 667.634C443.063 665.507 442.933 663.368 442.917 661.228V641.508H448.488V674.04H441.413L426.15 648.137C426.15 649.251 426.15 650.309 426.15 651.312C426.15 652.315 426.54 653.095 426.54 653.93Z" fill="#E8ECF7"/>
<path d="M487.204 669.249V674.04H461.022V641.508H486.257V646.187H467.038V655.1H484.641V659.779H466.815V669.305L487.204 669.249Z" fill="#E8ECF7"/>
<path d="M524.415 669.249V674.04H498.233V641.508H523.635V646.187H504.25V655.1H522.131V659.779H504.25V669.305L524.415 669.249Z" fill="#E8ECF7"/>
<path d="M541.461 661.176V674.044H535.445V641.512H551.488C554.623 641.314 557.73 642.199 560.29 644.018C561.327 644.871 562.15 645.955 562.692 647.184C563.233 648.413 563.479 649.752 563.409 651.093C563.47 653.265 562.751 655.386 561.381 657.073C560.012 658.759 558.083 659.899 555.945 660.284L564.913 674.044H558.117L550.263 661.287L541.461 661.176ZM557.059 651.204C557.105 650.491 556.983 649.776 556.702 649.118C556.421 648.46 555.99 647.877 555.443 647.416C554.018 646.456 552.31 646.004 550.597 646.135H541.461V656.496H550.931C552.609 656.628 554.277 656.132 555.61 655.104C556.133 654.607 556.535 653.997 556.786 653.322C557.037 652.646 557.13 651.922 557.059 651.204Z" fill="#E8ECF7"/>
<path d="M581.458 641.398V674.042H575.386V641.51L581.458 641.398Z" fill="#E8ECF7"/>
<path d="M599.395 653.93V674.04H593.825V641.508H600.732L616.163 667.634C616.163 665.071 615.829 662.955 615.829 661.228V641.508H621.399V674.04H614.324L599.061 648.137C599.061 649.251 599.061 650.309 599.061 651.312C599.221 652.178 599.332 653.052 599.395 653.93Z" fill="#E8ECF7"/>
<path d="M649.14 669.642C651.03 669.669 652.912 669.386 654.711 668.807C656.208 668.385 657.595 667.644 658.778 666.634V661.677H650.087V657.331H664.125V669.03C662.262 670.868 660.018 672.276 657.552 673.152C654.825 674.164 651.938 674.674 649.029 674.656C645.936 674.751 642.87 674.061 640.116 672.651C637.744 671.393 635.804 669.452 634.546 667.08C633.192 664.248 632.524 661.138 632.596 658C632.449 655.765 632.754 653.524 633.491 651.409C634.227 649.294 635.382 647.349 636.885 645.689C638.538 644.193 640.474 643.042 642.579 642.305C644.684 641.569 646.915 641.261 649.14 641.4C652.308 641.267 655.456 641.958 658.276 643.405C660.695 644.771 662.535 646.968 663.457 649.588L657.886 651.26C657.227 649.627 656.028 648.27 654.488 647.416C652.774 646.512 650.854 646.07 648.918 646.135C647.481 646.046 646.043 646.274 644.705 646.804C643.366 647.333 642.161 648.151 641.175 649.198C639.248 651.712 638.298 654.839 638.501 658C638.323 661.21 639.312 664.376 641.286 666.913C642.311 667.922 643.547 668.691 644.906 669.163C646.264 669.635 647.711 669.799 649.14 669.642Z" fill="#E8ECF7"/>
</g>
<defs>
<clipPath id="clip0_2037_3">
<rect width="947" height="947.724" rx="200" fill="white"/>
</clipPath>
</defs>
</svg>
