<svg width="1047" height="205" viewBox="0 0 1047 205" fill="none" xmlns="http://www.w3.org/2000/svg">
<path d="M230.851 0L378.888 84.3086C380.09 84.9927 381.089 85.983 381.783 87.1787C382.478 88.3744 382.844 89.7328 382.843 91.1157V113.848C382.856 115.244 382.497 116.619 381.802 117.831C381.106 119.042 380.1 120.046 378.888 120.738L230.851 204.443V158.792L318.515 109.289C319.699 108.6 320.682 107.613 321.365 106.426C322.047 105.239 322.407 103.893 322.407 102.523C322.407 101.154 322.047 99.8083 321.365 98.6211C320.682 97.4339 319.699 96.4466 318.515 95.7579L230.768 45.7973L230.851 0Z" fill="#231F48"/>
<path d="M196.313 196.616V7.84799C196.313 5.76657 197.14 3.77041 198.612 2.29862C200.084 0.826839 202.08 0 204.162 0L230.851 0V204.443H204.162C203.132 204.446 202.112 204.245 201.16 203.853C200.208 203.461 199.343 202.885 198.613 202.158C197.884 201.431 197.306 200.567 196.911 199.616C196.517 198.665 196.313 197.646 196.313 196.616Z" fill="#231F48"/>
<path d="M36.2858 43.7156V84.0172C36.2858 85.0468 36.4889 86.0663 36.8836 87.0173C37.2783 87.9683 37.8567 88.8321 38.5858 89.5592C39.3148 90.2863 40.1802 90.8624 41.1323 91.2545C42.0844 91.6466 43.1045 91.8471 44.1341 91.8443H84.7084C85.7391 91.8443 86.7596 92.0473 87.7119 92.4417C88.6641 92.8361 89.5293 93.4142 90.258 94.143C90.9868 94.8717 91.5649 95.7369 91.9594 96.689C92.3538 97.6412 92.5568 98.6617 92.5568 99.6923V119.864C92.5568 120.894 92.3536 121.913 91.959 122.864C91.5643 123.815 90.9858 124.679 90.2568 125.406C89.5277 126.133 88.6624 126.709 87.7103 127.101C86.7582 127.493 85.7381 127.694 84.7084 127.691H44.1341C42.0526 127.691 40.0564 128.518 38.5845 129.99C37.1126 131.462 36.2858 133.458 36.2858 135.539V196.616C36.2858 198.692 35.4611 200.683 33.9931 202.151C32.5252 203.619 30.5342 204.443 28.4582 204.443H7.84838C6.8187 204.446 5.7986 204.245 4.84651 203.853C3.89442 203.461 3.02906 202.885 2.3 202.158C1.57093 201.431 0.992496 200.567 0.597823 199.616C0.20315 198.665 -3.64161e-06 197.646 0 196.616L0 7.84799C0 5.76657 0.826881 3.77041 2.29874 2.29862C3.7706 0.826839 5.76686 0 7.84838 0L113.479 0C114.509 -3.64143e-06 115.528 0.20314 116.479 0.597793C117.43 0.992446 118.294 1.57085 119.021 2.29988C119.748 3.02891 120.324 3.89423 120.717 4.84627C121.109 5.79831 121.309 6.81836 121.306 7.84799V27.9988C121.309 29.0284 121.109 30.0485 120.717 31.0005C120.324 31.9525 119.748 32.8179 119.021 33.5469C118.294 34.2759 117.43 34.8543 116.479 35.249C115.528 35.6436 114.509 35.8468 113.479 35.8468H44.1341C43.1009 35.844 42.0774 36.0458 41.1226 36.4405C40.1678 36.8353 39.3006 37.4151 38.571 38.1466C37.8413 38.8781 37.2638 39.7468 36.8716 40.7026C36.4794 41.6584 36.2803 42.6824 36.2858 43.7156Z" fill="#231F48"/>
<path d="M138.793 196.616V7.84799C138.791 6.81836 138.991 5.79831 139.383 4.84627C139.775 3.89423 140.352 3.02891 141.079 2.29988C141.806 1.57085 142.67 0.992446 143.621 0.597793C144.572 0.20314 145.591 -3.64143e-06 146.621 0L165.357 0C167.439 0 169.435 0.826839 170.907 2.29862C172.379 3.77041 173.206 5.76657 173.206 7.84799V196.616C173.206 197.646 173.002 198.665 172.608 199.616C172.213 200.567 171.635 201.431 170.906 202.158C170.177 202.885 169.311 203.461 168.359 203.853C167.407 204.245 166.387 204.446 165.357 204.443H146.621C145.593 204.443 144.575 204.241 143.626 203.847C142.676 203.454 141.813 202.877 141.086 202.151C140.359 201.424 139.783 200.561 139.389 199.611C138.996 198.662 138.793 197.644 138.793 196.616Z" fill="#231F48"/>
<path d="M451.438 13.7199C466.813 4.73507 484.301 0 502.109 0C519.917 0 537.405 4.73507 552.78 13.7199C568.13 22.7365 580.81 35.6673 589.524 51.1904C598.492 66.8869 603.146 84.6769 603.014 102.754C603.053 120.538 598.437 138.024 589.625 153.472C580.812 168.919 568.11 181.792 552.78 190.81C537.405 199.794 519.917 204.529 502.109 204.529C484.301 204.529 466.813 199.794 451.438 190.81C436.115 181.784 423.419 168.91 414.607 153.464C405.795 138.018 401.175 120.536 401.204 102.754C401.078 84.675 405.74 66.8849 414.715 51.1904C423.415 35.6639 436.09 22.7315 451.438 13.7199ZM470.174 159.314C479.761 165.168 490.792 168.232 502.026 168.161C513.478 168.251 524.734 165.19 534.564 159.314C544.367 153.468 552.48 145.171 558.105 135.24C563.73 125.308 566.673 114.084 566.645 102.671C566.673 91.2572 563.73 80.0329 558.105 70.1015C552.48 60.1701 544.367 51.8736 534.564 46.0278C524.739 40.1403 513.479 37.0788 502.026 37.1806C490.79 37.0968 479.756 40.1616 470.174 46.0278C460.497 51.8547 452.493 60.0878 446.941 69.9256C441.279 79.9103 438.303 91.1924 438.303 102.671C438.303 114.149 441.279 125.431 446.941 135.416C452.516 145.264 460.549 153.498 470.257 159.314H470.174Z" fill="#80DBFF"/>
<path d="M672.921 13.7194C688.3 4.73482 705.791 0 723.602 0C741.413 0 758.905 4.73482 774.284 13.7194C789.632 22.731 802.306 35.6634 811.007 51.1899C819.974 66.8864 824.629 84.6764 824.497 102.753C824.528 120.534 819.911 138.014 811.103 153.46C802.295 168.906 789.602 181.781 774.284 190.809C758.905 199.794 741.413 204.528 723.602 204.528C705.791 204.528 688.3 199.794 672.921 190.809C657.602 181.781 644.909 168.906 636.102 153.46C627.294 138.014 622.676 120.534 622.708 102.753C622.576 84.6764 627.23 66.8864 636.198 51.1899C644.904 35.6677 657.577 22.7365 672.921 13.7194ZM691.657 159.313C701.244 165.168 712.275 168.232 723.509 168.16C734.961 168.25 746.217 165.19 756.047 159.313C765.859 153.477 773.978 145.182 779.604 135.249C785.23 125.315 788.168 114.086 788.128 102.67C788.168 91.2543 785.23 80.0252 779.604 70.0917C773.978 60.1582 765.859 51.8637 756.047 46.0273C746.222 40.1398 734.962 37.0783 723.509 37.1801C712.274 37.1018 701.242 40.1662 691.657 46.0273C681.979 51.8542 673.975 60.0873 668.424 69.9251C662.762 79.9098 659.786 91.1919 659.786 102.67C659.786 114.148 662.762 125.43 668.424 135.415C673.999 145.263 682.032 153.497 691.74 159.313H691.657Z" fill="#FF7178"/>
<path d="M894.424 13.7199C909.799 4.73507 927.287 0 945.095 0C962.903 0 980.391 4.73507 995.766 13.7199C1011.11 22.7315 1023.79 35.6639 1032.49 51.1904C1041.47 66.8811 1046.14 84.6738 1046 102.754C1046.03 120.536 1041.41 138.018 1032.6 153.464C1023.79 168.91 1011.09 181.784 995.766 190.81C980.391 199.794 962.903 204.529 945.095 204.529C927.287 204.529 909.799 199.794 894.424 190.81C879.102 181.784 866.405 168.91 857.593 153.464C848.782 138.018 844.161 120.536 844.191 102.754C844.04 84.6456 848.703 66.8223 857.701 51.1071C866.413 35.6112 879.087 22.7086 894.424 13.7199ZM913.161 159.314C922.784 165.191 933.861 168.256 945.137 168.161C956.583 168.255 967.834 165.194 977.655 159.314C987.449 153.463 995.552 145.164 1001.17 135.232C1006.78 125.301 1009.71 114.079 1009.67 102.671C1009.71 91.2584 1006.77 80.0339 1001.15 70.1019C995.526 60.17 987.415 51.873 977.613 46.0278C967.809 40.1453 956.57 37.0838 945.137 37.1806C933.896 37.1051 922.858 40.1692 913.265 46.0278C903.597 51.8666 895.595 60.0969 890.032 69.9256C884.391 79.9175 881.428 91.1968 881.428 102.671C881.428 114.144 884.391 125.424 890.032 135.416C895.584 145.239 903.57 153.469 913.223 159.314H913.161Z" fill="#FED779"/>
</svg>
