<svg width="177" height="62" viewBox="0 0 177 62" fill="none" xmlns="http://www.w3.org/2000/svg">
<path d="M39.014 0L63.9373 14.1724C64.1397 14.2874 64.3079 14.4539 64.4249 14.6549C64.5419 14.8559 64.6034 15.0843 64.6033 15.3167V19.138C64.6055 19.3728 64.545 19.6039 64.428 19.8075C64.3109 20.0111 64.1415 20.1799 63.9373 20.2963L39.014 34.3673V26.6932L53.7731 18.3717C53.9725 18.2559 54.1379 18.0899 54.2528 17.8904C54.3678 17.6908 54.4283 17.4646 54.4283 17.2344C54.4283 17.0042 54.3678 16.778 54.2528 16.5784C54.1379 16.3788 53.9725 16.2129 53.7731 16.0971L39 7.69861L39.014 0Z" fill="#29C2FF"/>
<path d="M33.0527 33.0515V1.31926C33.0527 0.969371 33.1919 0.633812 33.4397 0.386403C33.6875 0.138993 34.0236 0 34.3741 0L38.8674 0V34.3673H34.3741C34.2007 34.3677 34.029 34.334 33.8687 34.2681C33.7084 34.2022 33.5627 34.1054 33.44 33.9831C33.3172 33.8609 33.2198 33.7157 33.1534 33.5559C33.0869 33.396 33.0527 33.2246 33.0527 33.0515Z" fill="#29C2FF"/>
<path d="M6.10903 7.34867V14.1234C6.10903 14.2965 6.14324 14.4679 6.20968 14.6278C6.27613 14.7876 6.37352 14.9328 6.49626 15.0551C6.619 15.1773 6.7647 15.2741 6.92499 15.3401C7.08528 15.406 7.25702 15.4397 7.43038 15.4392H14.2614C14.4349 15.4392 14.6068 15.4733 14.7671 15.5396C14.9274 15.6059 15.0731 15.7031 15.1958 15.8256C15.3185 15.9481 15.4158 16.0935 15.4822 16.2536C15.5486 16.4137 15.5828 16.5852 15.5828 16.7585V20.1494C15.5828 20.3224 15.5486 20.4938 15.4821 20.6537C15.4157 20.8135 15.3183 20.9588 15.1955 21.081C15.0728 21.2032 14.9271 21.3001 14.7668 21.366C14.6065 21.4319 14.4348 21.4656 14.2614 21.4651H7.43038C7.07994 21.4651 6.74385 21.6041 6.49605 21.8515C6.24825 22.0989 6.10903 22.4345 6.10903 22.7844V33.0515C6.10903 33.4005 5.97019 33.7351 5.72305 33.9819C5.4759 34.2287 5.14071 34.3673 4.79119 34.3673H1.32135C1.14799 34.3677 0.976246 34.334 0.815954 34.2681C0.655661 34.2022 0.509969 34.1054 0.387225 33.9831C0.264481 33.8609 0.167096 33.7157 0.100649 33.5559C0.0342022 33.396 -6.13098e-07 33.2246 0 33.0515L0 1.31926C0 0.969371 0.139213 0.633812 0.387013 0.386403C0.634814 0.138993 0.970903 0 1.32135 0L19.1052 0C19.2785 -6.12131e-07 19.4502 0.0341482 19.6103 0.10049C19.7704 0.166832 19.9159 0.264063 20.0383 0.386614C20.1607 0.509165 20.2577 0.654627 20.3237 0.814666C20.3897 0.974706 20.4235 1.14618 20.423 1.31926V4.70665C20.4235 4.87973 20.3897 5.0512 20.3237 5.21124C20.2577 5.37128 20.1607 5.51675 20.0383 5.6393C19.9159 5.76185 19.7704 5.85908 19.6103 5.92542C19.4502 5.99176 19.2785 6.02591 19.1052 6.02591H7.43038C7.25643 6.02545 7.08411 6.05937 6.92336 6.12572C6.76261 6.19208 6.61661 6.28955 6.49377 6.41252C6.37093 6.53548 6.27369 6.68152 6.20766 6.84219C6.14163 7.00286 6.10811 7.175 6.10903 7.34867Z" fill="#E8ECF7"/>
<path d="M23.3672 33.0515V1.31926C23.3667 1.14618 23.4005 0.974706 23.4665 0.814666C23.5325 0.654627 23.6295 0.509165 23.7519 0.386614C23.8744 0.264063 24.0198 0.166832 24.1799 0.10049C24.34 0.0341482 24.5117 -6.12131e-07 24.685 0L27.8394 0C28.1899 0 28.526 0.138993 28.7738 0.386403C29.0216 0.633812 29.1608 0.969371 29.1608 1.31926V33.0515C29.1608 33.2246 29.1266 33.396 29.0601 33.5559C28.9937 33.7157 28.8963 33.8609 28.7736 33.9831C28.6508 34.1054 28.5051 34.2022 28.3448 34.2681C28.1845 34.334 28.0128 34.3677 27.8394 34.3673H24.685C24.512 34.3673 24.3406 34.3333 24.1807 34.2671C24.0208 34.201 23.8756 34.1041 23.7532 33.9819C23.6308 33.8597 23.5337 33.7147 23.4675 33.555C23.4013 33.3954 23.3672 33.2243 23.3672 33.0515Z" fill="#E8ECF7"/>
<path d="M76.0046 2.30634C78.5931 0.795974 81.5374 0 84.5355 0C87.5337 0 90.4779 0.795974 93.0664 2.30634C95.6507 3.82205 97.7855 5.99574 99.2526 8.6052C100.762 11.2438 101.546 14.2344 101.524 17.2731C101.53 20.2627 100.753 23.202 99.2696 25.7989C97.7859 28.3957 95.6473 30.5596 93.0664 32.0755C90.4779 33.5858 87.5337 34.3818 84.5355 34.3818C81.5374 34.3818 78.5931 33.5858 76.0046 32.0755C73.4249 30.5582 71.2873 28.3941 69.8038 25.7975C68.3203 23.201 67.5424 20.2624 67.5473 17.2731C67.5261 14.234 68.3109 11.2435 69.822 8.6052C71.2867 5.99517 73.4206 3.8212 76.0046 2.30634ZM79.159 26.7809C80.7731 27.7651 82.6302 28.2802 84.5215 28.2681C86.4496 28.2833 88.3447 27.7688 89.9997 26.7809C91.6501 25.7982 93.016 24.4036 93.963 22.7341C94.91 21.0646 95.4055 19.1778 95.4007 17.2591C95.4055 15.3405 94.91 13.4537 93.963 11.7842C93.016 10.1147 91.6501 8.72005 89.9997 7.73735C88.3455 6.74765 86.4499 6.23301 84.5215 6.25012C82.63 6.23604 80.7723 6.75124 79.159 7.73735C77.5297 8.71687 76.1822 10.1009 75.2476 11.7546C74.2943 13.4331 73.7932 15.3296 73.7932 17.2591C73.7932 19.1886 74.2943 21.0852 75.2476 22.7636C76.1861 24.4191 77.5386 25.8033 79.173 26.7809H79.159Z" fill="#29C2FF"/>
<path d="M113.292 2.30625C115.881 0.795933 118.826 0 121.825 0C124.824 0 127.768 0.795933 130.358 2.30625C132.942 3.82112 135.075 5.99509 136.54 8.60511C138.05 11.2437 138.834 14.2343 138.811 17.273C138.817 20.262 138.039 23.2004 136.556 25.7969C135.073 28.3933 132.937 30.5577 130.358 32.0754C127.768 33.5857 124.824 34.3816 121.825 34.3816C118.826 34.3816 115.881 33.5857 113.292 32.0754C110.713 30.5577 108.576 28.3933 107.093 25.7969C105.61 23.2004 104.833 20.262 104.838 17.273C104.816 14.2343 105.6 11.2437 107.11 8.60511C108.575 5.9958 110.709 3.82205 113.292 2.30625ZM116.447 26.7808C118.061 27.765 119.918 28.2801 121.809 28.2681C123.737 28.2832 125.632 27.7687 127.287 26.7808C128.939 25.7997 130.306 24.4054 131.253 22.7355C132.201 21.0657 132.695 19.1781 132.688 17.259C132.695 15.34 132.201 13.4524 131.253 11.7825C130.306 10.1127 128.939 8.71839 127.287 7.73727C125.633 6.74757 123.737 6.23293 121.809 6.25004C119.918 6.23689 118.06 6.75202 116.447 7.73727C114.817 8.71679 113.47 10.1008 112.535 11.7545C111.582 13.433 111.081 15.3295 111.081 17.259C111.081 19.1886 111.582 21.0851 112.535 22.7636C113.474 24.4191 114.826 25.8032 116.461 26.7808H116.447Z" fill="#7FDBFF"/>
<path d="M150.585 2.30634C153.173 0.795975 156.118 0 159.116 0C162.114 0 165.058 0.795975 167.647 2.30634C170.231 3.8212 172.365 5.99517 173.829 8.6052C175.342 11.2428 176.127 14.2338 176.104 17.2731C176.109 20.2624 175.331 23.201 173.848 25.7975C172.364 28.3941 170.226 30.5582 167.647 32.0755C165.058 33.5858 162.114 34.3818 159.116 34.3818C156.118 34.3818 153.173 33.5858 150.585 32.0755C148.005 30.5582 145.868 28.3941 144.384 25.7975C142.901 23.201 142.123 20.2624 142.128 17.2731C142.102 14.2291 142.887 11.233 144.402 8.5912C145.869 5.98631 148.003 3.81735 150.585 2.30634ZM153.739 26.7809C155.359 27.7689 157.224 28.2841 159.123 28.2681C161.05 28.2841 162.944 27.7695 164.597 26.7809C166.246 25.7974 167.611 24.4023 168.556 22.7328C169.501 21.0633 169.994 19.1769 169.988 17.2591C169.994 15.3407 169.499 13.4538 168.553 11.7843C167.606 10.1147 166.241 8.71996 164.59 7.73735C162.94 6.74851 161.048 6.23386 159.123 6.25012C157.23 6.23743 155.372 6.75251 153.757 7.73735C152.129 8.71887 150.782 10.1024 149.845 11.7546C148.896 13.4343 148.397 15.3304 148.397 17.2591C148.397 19.1879 148.896 21.084 149.845 22.7636C150.78 24.415 152.125 25.7984 153.75 26.7809H153.739Z" fill="#BAECFF"/>
<path d="M22.6484 59.1719V61H16.5938V59.1719H22.6484ZM17.3594 49.625V61H15.0156V49.625H17.3594ZM21.8594 54.2578V56.0391H16.5938V54.2578H21.8594ZM22.6406 49.625V51.4609H16.5938V49.625H22.6406Z" fill="#E8ECF7"/>
<path d="M37.3534 49.625V61H35.0097L30.4394 53.375V61H28.0956V49.625H30.4394L35.0175 57.2578V49.625H37.3534Z" fill="#E8ECF7"/>
<path d="M52.4881 55.0547V59.5625C52.311 59.776 52.0376 60.0078 51.6678 60.2578C51.298 60.5026 50.8215 60.7135 50.2381 60.8906C49.6548 61.0677 48.9491 61.1562 48.1209 61.1562C47.3866 61.1562 46.7173 61.0365 46.1131 60.7969C45.509 60.5521 44.9881 60.1953 44.5506 59.7266C44.1183 59.2578 43.785 58.6849 43.5506 58.0078C43.3162 57.3255 43.1991 56.5469 43.1991 55.6719V54.9609C43.1991 54.0859 43.311 53.3073 43.535 52.625C43.7642 51.9427 44.0897 51.3672 44.5116 50.8984C44.9334 50.4297 45.436 50.0729 46.0194 49.8281C46.6027 49.5833 47.2511 49.4609 47.9647 49.4609C48.9543 49.4609 49.7668 49.6224 50.4022 49.9453C51.0376 50.263 51.522 50.7057 51.8553 51.2734C52.1939 51.8359 52.4022 52.4818 52.4803 53.2109H50.2069C50.1496 52.8255 50.0402 52.4896 49.8787 52.2031C49.7173 51.9167 49.4855 51.6927 49.1834 51.5312C48.8866 51.3698 48.5011 51.2891 48.0272 51.2891C47.6366 51.2891 47.2876 51.3698 46.9803 51.5312C46.6782 51.6875 46.423 51.9193 46.2147 52.2266C46.0064 52.5339 45.8475 52.9141 45.7381 53.3672C45.6287 53.8203 45.5741 54.3464 45.5741 54.9453V55.6719C45.5741 56.2656 45.6314 56.7917 45.7459 57.25C45.8605 57.7031 46.0298 58.0859 46.2537 58.3984C46.4829 58.7057 46.7642 58.9375 47.0975 59.0938C47.4308 59.25 47.8189 59.3281 48.2616 59.3281C48.6314 59.3281 48.9386 59.2969 49.1834 59.2344C49.4334 59.1719 49.634 59.0964 49.785 59.0078C49.9412 58.9141 50.061 58.8255 50.1444 58.7422V56.7266H48.0037V55.0547H52.4881Z" fill="#E8ECF7"/>
<path d="M60.9509 49.625V61H58.615V49.625H60.9509Z" fill="#E8ECF7"/>
<path d="M76.4841 49.625V61H74.1403L69.57 53.375V61H67.2262V49.625H69.57L74.1481 57.2578V49.625H76.4841Z" fill="#E8ECF7"/>
<path d="M90.2359 59.1719V61H84.1813V59.1719H90.2359ZM84.9469 49.625V61H82.6031V49.625H84.9469ZM89.4469 54.2578V56.0391H84.1813V54.2578H89.4469ZM90.2281 49.625V51.4609H84.1813V49.625H90.2281Z" fill="#E8ECF7"/>
<path d="M103.316 59.1719V61H97.2612V59.1719H103.316ZM98.0269 49.625V61H95.6831V49.625H98.0269ZM102.527 54.2578V56.0391H97.2612V54.2578H102.527ZM103.308 49.625V51.4609H97.2612V49.625H103.308Z" fill="#E8ECF7"/>
<path d="M108.763 49.625H113.005C113.875 49.625 114.622 49.7552 115.247 50.0156C115.878 50.276 116.362 50.6615 116.701 51.1719C117.039 51.6823 117.208 52.3099 117.208 53.0547C117.208 53.6641 117.104 54.1875 116.896 54.625C116.693 55.0573 116.404 55.4193 116.029 55.7109C115.659 55.9974 115.224 56.2266 114.724 56.3984L113.982 56.7891H110.294L110.279 54.9609H113.021C113.432 54.9609 113.774 54.888 114.044 54.7422C114.315 54.5964 114.518 54.3932 114.654 54.1328C114.794 53.8724 114.865 53.5703 114.865 53.2266C114.865 52.862 114.797 52.5469 114.662 52.2812C114.526 52.0156 114.32 51.8125 114.044 51.6719C113.768 51.5312 113.422 51.4609 113.005 51.4609H111.107V61H108.763V49.625ZM115.122 61L112.529 55.9297L115.005 55.9141L117.63 60.8906V61H115.122Z" fill="#E8ECF7"/>
<path d="M125.585 49.625V61H123.249V49.625H125.585Z" fill="#E8ECF7"/>
<path d="M141.118 49.625V61H138.775L134.204 53.375V61H131.861V49.625H134.204L138.783 57.2578V49.625H141.118Z" fill="#E8ECF7"/>
<path d="M156.253 55.0547V59.5625C156.076 59.776 155.803 60.0078 155.433 60.2578C155.063 60.5026 154.586 60.7135 154.003 60.8906C153.42 61.0677 152.714 61.1562 151.886 61.1562C151.152 61.1562 150.482 61.0365 149.878 60.7969C149.274 60.5521 148.753 60.1953 148.316 59.7266C147.883 59.2578 147.55 58.6849 147.316 58.0078C147.081 57.3255 146.964 56.5469 146.964 55.6719V54.9609C146.964 54.0859 147.076 53.3073 147.3 52.625C147.529 51.9427 147.855 51.3672 148.277 50.8984C148.698 50.4297 149.201 50.0729 149.784 49.8281C150.368 49.5833 151.016 49.4609 151.73 49.4609C152.719 49.4609 153.532 49.6224 154.167 49.9453C154.803 50.263 155.287 50.7057 155.62 51.2734C155.959 51.8359 156.167 52.4818 156.245 53.2109H153.972C153.915 52.8255 153.805 52.4896 153.644 52.2031C153.482 51.9167 153.251 51.6927 152.948 51.5312C152.652 51.3698 152.266 51.2891 151.792 51.2891C151.402 51.2891 151.053 51.3698 150.745 51.5312C150.443 51.6875 150.188 51.9193 149.98 52.2266C149.771 52.5339 149.613 52.9141 149.503 53.3672C149.394 53.8203 149.339 54.3464 149.339 54.9453V55.6719C149.339 56.2656 149.396 56.7917 149.511 57.25C149.626 57.7031 149.795 58.0859 150.019 58.3984C150.248 58.7057 150.529 58.9375 150.863 59.0938C151.196 59.25 151.584 59.3281 152.027 59.3281C152.396 59.3281 152.704 59.2969 152.948 59.2344C153.198 59.1719 153.399 59.0964 153.55 59.0078C153.706 58.9141 153.826 58.8255 153.909 58.7422V56.7266H151.769V55.0547H156.253Z" fill="#E8ECF7"/>
</svg>
